<svg width="35" height="37" viewBox="0 0 35 37" fill="none" xmlns="http://www.w3.org/2000/svg">
<path fill-rule="evenodd" clip-rule="evenodd" d="M11.7727 0.133502C10.3675 0.51439 8.96932 1.55555 8.35747 2.67658C8.11473 3.12147 7.96911 3.25144 7.61011 3.34368C7.36481 3.40676 6.84119 3.68418 6.44637 3.96021C5.27458 4.77951 4.58303 6.03617 4.58303 7.34654C4.58303 7.86619 4.54087 7.98135 4.30885 8.0957C3.24637 8.61929 2.19559 9.90188 1.77847 11.1842C1.49125 12.0673 1.4642 13.2587 1.71327 14.0449L1.88997 14.6025L1.35318 15.1695C0.207596 16.3796 -0.228291 17.8938 0.113278 19.477C0.222341 19.9822 0.449972 20.6641 0.619111 20.9925L0.926681 21.5897L0.570002 22.2732C-0.33382 24.0046 -0.15018 25.9444 1.06438 27.4943C1.50843 28.061 1.53658 28.1456 1.53658 28.9157C1.53658 30.3822 2.21046 31.7868 3.40235 32.8045C4.22002 33.5028 4.99126 33.8616 6.04216 34.0328C6.88494 34.1701 6.9126 34.1858 7.44877 34.834C7.74964 35.1977 8.32542 35.7044 8.72828 35.9599C11.2759 37.5756 14.3245 37.2886 16.3689 35.2406C16.7589 34.8499 17.1729 34.4 17.2889 34.2409L17.5 33.9515L17.7111 34.2409C17.8271 34.4 18.2411 34.8499 18.6311 35.2406C20.6755 37.2886 23.7241 37.5756 26.2717 35.9599C26.6746 35.7044 27.2504 35.1977 27.5512 34.834C28.0777 34.1976 28.1279 34.1679 28.8851 34.0447C31.5311 33.6143 33.4634 31.4437 33.4634 28.9017C33.4634 28.1479 33.4934 28.0587 33.9356 27.4943C35.1502 25.9444 35.3338 24.0046 34.43 22.2732L34.0733 21.5897L34.3809 20.9925C34.55 20.6641 34.7777 19.9822 34.8867 19.477C35.2283 17.8938 34.7924 16.3796 33.6468 15.1695L33.11 14.6025L33.2867 14.0449C33.5358 13.2587 33.5088 12.0673 33.2215 11.1842C32.8044 9.90188 31.7536 8.61929 30.6911 8.0957C30.4591 7.98135 30.417 7.86619 30.417 7.34654C30.417 6.03617 29.7254 4.77951 28.5536 3.96021C28.1588 3.68418 27.6352 3.40676 27.3899 3.34368C27.0309 3.25144 26.8853 3.12147 26.6425 2.67658C25.9879 1.47708 24.4395 0.384418 22.9702 0.0851241C21.1911 -0.277246 19.0681 0.54425 17.9265 2.03702C17.7254 2.29985 17.5335 2.51501 17.5 2.51501C17.4665 2.51501 17.2746 2.29985 17.0735 2.03702C16.5465 1.34781 15.5605 0.62596 14.7392 0.327939C13.8797 0.0161452 12.5316 -0.0722774 11.7727 0.133502ZM14.4422 1.76967C15.1777 2.13377 15.9875 2.95735 16.357 3.71728L16.7079 4.43878L16.7472 7.66608L16.7863 10.8935L16.5034 10.8102C15.3848 10.4807 15.1865 10.4685 14.8463 10.7087C14.3853 11.0341 14.3536 11.4651 14.7679 11.7746C14.9482 11.9093 15.2117 12.0197 15.3535 12.02C15.7768 12.0207 16.406 12.4602 16.5934 12.8864C16.7395 13.2184 16.7689 14.45 16.7689 20.2478V27.2105L16.251 26.7588C15.2468 25.8831 14.0875 25.3949 12.6888 25.2588C12.0128 25.193 11.8953 25.2128 11.666 25.4305C11.0447 26.0206 11.4969 26.5982 12.6871 26.7342C14.7246 26.9672 16.2418 28.3485 16.6665 30.3572C17.0406 32.1263 15.8922 34.235 14.0735 35.1191C13.5675 35.365 13.1951 35.4494 12.4429 35.4885C11.2924 35.5484 10.7291 35.4236 9.82866 34.9096C9.24021 34.5736 8.89913 34.2313 7.86553 32.9389C7.63302 32.6481 7.54041 32.6203 6.79769 32.618C6.26066 32.6164 5.80929 32.54 5.4687 32.3932C4.66504 32.0466 3.80863 31.2108 3.41697 30.3908C3.11708 29.7627 3.07163 29.5241 3.06614 28.5465L3.05981 27.4237L2.60918 26.9841C2.36144 26.7422 2.0128 26.2413 1.83477 25.8707C1.55571 25.2904 1.51794 25.082 1.56205 24.3661C1.5902 23.9092 1.70548 23.3339 1.81832 23.0877L2.0234 22.6403L2.35888 22.8505C3.31827 23.4518 4.90852 23.9258 5.43446 23.7672C5.81782 23.6517 6.04533 23.3735 6.04533 23.0204C6.04533 22.584 5.79175 22.4115 5.00064 22.3095C3.11781 22.0668 1.67416 20.5588 1.55864 18.7138C1.53207 18.29 1.57643 17.7431 1.65722 17.4986C1.86791 16.8604 2.45637 16.0668 3.01375 15.6688C3.56978 15.2718 3.70882 14.9031 3.49167 14.4007C3.03422 13.3414 2.94928 12.8334 3.10794 12.1041C3.38456 10.8321 4.0956 9.88197 5.20951 9.296C5.7809 8.99543 5.9844 8.95249 6.83741 8.95249C7.69042 8.95249 7.89392 8.99543 8.46531 9.296C9.13432 9.64795 9.81709 10.3034 10.1569 10.92C10.3885 11.3401 10.6725 12.3195 10.6745 12.7048C10.6776 13.3146 11.4371 13.6279 11.9154 13.2168C12.3454 12.8473 12.1379 11.4185 11.474 10.1774C10.5772 8.50078 8.11314 7.1631 6.46306 7.45718L6.02864 7.53449L6.11491 7.08613C6.23811 6.44692 6.38459 6.11371 6.73383 5.67889C7.7288 4.43993 9.50501 4.2198 10.9404 5.1575C11.878 5.77009 12.5038 5.66686 12.5038 4.89952C12.5038 4.60775 12.4005 4.4345 12.0548 4.1462C11.5729 3.74436 10.507 3.22656 10.158 3.2247C10.0407 3.22401 9.94479 3.14948 9.94479 3.05897C9.94479 2.81245 11.1473 1.86156 11.7083 1.66435C12.3637 1.43415 13.8825 1.49259 14.4422 1.76967ZM23.2416 1.66388C23.8354 1.85612 25.0552 2.79428 25.0552 3.05897C25.0552 3.14948 24.9543 3.22355 24.831 3.22355C24.4741 3.22355 23.1908 3.87861 22.8118 4.25429C22.4268 4.63588 22.3603 5.11155 22.6529 5.38944C22.9493 5.67091 23.3834 5.59938 24.0596 5.1575C25.495 4.2198 27.2712 4.43993 28.2662 5.67889C28.6154 6.11371 28.7619 6.44692 28.8851 7.08613L28.9714 7.53449L28.5369 7.45718C27.3983 7.25418 25.5699 7.92765 24.4995 8.94428C22.8607 10.5008 22.2564 13.4083 23.5717 13.4083C23.9793 13.4083 24.3237 13.0961 24.3255 12.7249C24.3275 12.3223 24.6065 11.3492 24.8431 10.92C25.1829 10.3034 25.8657 9.64795 26.5347 9.296C27.1061 8.99543 27.3096 8.95249 28.1626 8.95249C29.0156 8.95249 29.2191 8.99543 29.7905 9.296C30.9044 9.88197 31.6154 10.8321 31.8921 12.1041C32.0507 12.8334 31.9658 13.3414 31.5083 14.4007C31.2912 14.9031 31.4302 15.2718 31.9863 15.6688C32.5436 16.0668 33.1321 16.8604 33.3428 17.4986C33.4236 17.7431 33.4679 18.29 33.4414 18.7138C33.3258 20.5588 31.8822 22.0668 29.9994 22.3095C29.2083 22.4115 28.9547 22.584 28.9547 23.0204C28.9547 23.3735 29.1822 23.6517 29.5655 23.7672C30.0915 23.9258 31.6817 23.4518 32.6411 22.8505L32.9766 22.6403L33.1817 23.0877C33.2945 23.3339 33.4098 23.9092 33.438 24.3661C33.4819 25.0798 33.444 25.2905 33.1697 25.8597C32.994 26.2243 32.6253 26.7544 32.3504 27.0377L31.8504 27.5528L31.9286 28.3217C32.0664 29.6757 31.5975 30.8304 30.5424 31.7358C29.7939 32.378 29.1652 32.615 28.2023 32.618C27.4596 32.6203 27.367 32.6481 27.1345 32.9389C26.1009 34.2313 25.7598 34.5736 25.1713 34.9096C24.2709 35.4236 23.7076 35.5484 22.5571 35.4885C21.8049 35.4494 21.4325 35.365 20.9265 35.1191C19.1078 34.235 17.9594 32.1263 18.3335 30.3572C18.7582 28.3485 20.2754 26.9672 22.3129 26.7342C23.5031 26.5982 23.9553 26.0206 23.334 25.4305C23.1047 25.2128 22.9872 25.193 22.3112 25.2588C20.9125 25.3949 19.7532 25.8831 18.749 26.7588L18.2311 27.2105V20.2478C18.2311 14.45 18.2605 13.2184 18.4066 12.8864C18.594 12.4602 19.2232 12.0207 19.6465 12.02C19.7883 12.0197 20.0518 11.9093 20.2321 11.7746C20.6464 11.4651 20.6147 11.0341 20.1537 10.7087C19.8135 10.4685 19.6152 10.4807 18.4966 10.8102L18.2137 10.8935L18.2528 7.66608L18.2921 4.43878L18.6338 3.74436C19.5362 1.91029 21.4012 1.0683 23.2416 1.66388ZM13.1929 6.2129C12.9382 6.48025 12.9331 6.97109 13.1827 7.20823C13.467 7.47813 14.0386 7.43832 14.2638 7.13277C14.5191 6.78661 14.5027 6.51081 14.2098 6.23269C13.9057 5.94381 13.4576 5.93513 13.1929 6.2129ZM20.7902 6.23269C20.4973 6.51081 20.4809 6.78661 20.7362 7.13277C21.1236 7.6581 22.0088 7.36066 22.0088 6.70536C22.0088 6.0739 21.2622 5.78433 20.7902 6.23269ZM6.38532 12.142C6.06885 12.3172 6.00719 12.9265 6.21825 13.7912C6.46964 14.8209 6.79574 15.4024 7.54114 16.1511C8.24329 16.8561 9.13395 17.3794 9.97221 17.5794C10.5057 17.7066 10.5382 17.7348 10.4146 17.964C10.0207 18.6941 9.39582 19.0785 8.32457 19.2496C7.79546 19.334 7.54931 19.6862 7.67835 20.1745C7.79083 20.6002 8.25182 20.7409 9.02245 20.5847C10.4022 20.305 11.4205 19.5066 11.8758 18.3476C12.0919 17.7972 12.1466 17.7468 12.6638 17.6215C13.9604 17.3073 15.1847 16.5024 15.1847 15.964C15.1847 15.5866 14.8513 15.2601 14.4659 15.2601C14.3157 15.2601 13.9478 15.4202 13.6486 15.6158C12.8225 16.1556 12.1276 16.3404 11.1695 16.2752C9.25605 16.1453 7.90477 14.9111 7.6262 13.0388C7.51336 12.2805 7.31022 12.0165 6.8446 12.023C6.70653 12.0249 6.49999 12.0784 6.38532 12.142ZM27.6932 12.1663C27.5585 12.2598 27.443 12.5742 27.3748 13.0324C26.9517 15.8749 23.8101 17.2224 21.3514 15.6158C21.0522 15.4202 20.6748 15.2601 20.5129 15.2601C20.139 15.2601 19.8153 15.596 19.8153 15.9842C19.8153 16.5016 21.0656 17.3136 22.3362 17.6215C22.8533 17.7468 22.9081 17.7972 23.1242 18.3476C23.5795 19.5066 24.5977 20.305 25.9776 20.5847C26.7482 20.7409 27.2092 20.6002 27.3216 20.1745C27.4507 19.6862 27.2045 19.334 26.6754 19.2496C25.6042 19.0785 24.9793 18.6941 24.5854 17.964C24.4618 17.7348 24.4943 17.7066 25.0278 17.5794C26.2617 17.285 27.741 16.1537 28.3331 15.0516C28.6849 14.3967 28.9884 13.0948 28.8972 12.6328C28.7871 12.0758 28.1686 11.8361 27.6932 12.1663ZM11.6508 22.449C10.1423 22.6784 8.1179 23.9495 7.27561 25.1961C6.83668 25.8458 6.80366 26.1652 7.14206 26.4866C7.48923 26.8163 7.85176 26.7733 8.22233 26.3588C9.81051 24.582 10.7269 24.025 12.3806 23.8307C13.0847 23.7481 13.3423 23.6661 13.5078 23.472C13.7969 23.133 13.7782 22.9412 13.4232 22.6042C13.0987 22.2959 12.8189 22.2714 11.6508 22.449ZM21.5768 22.6042C21.2218 22.9412 21.2031 23.133 21.4922 23.472C21.6577 23.6661 21.9153 23.7481 22.6194 23.8307C24.2731 24.025 25.1895 24.582 26.7777 26.3588C27.1482 26.7733 27.5108 26.8163 27.8579 26.4866C28.1963 26.1652 28.1633 25.8458 27.7244 25.1961C26.6476 23.6025 24.1777 22.3272 22.1556 22.321C22.0017 22.3204 21.7413 22.4479 21.5768 22.6042ZM6.34449 28.391C5.76408 28.9421 6.10906 29.4456 7.17898 29.609C9.02074 29.8904 10.2745 31.1381 10.6088 33.0221C10.7314 33.7132 10.8023 33.8617 11.0801 34.0093C11.3715 34.1642 11.4435 34.1637 11.7422 34.0057C12.0264 33.8553 12.0832 33.7415 12.1156 33.257C12.2556 31.1642 10.3708 28.8531 8.06087 28.2853C7.04737 28.0363 6.69508 28.0579 6.34449 28.391ZM26.8831 28.2924C24.6171 28.8682 22.7462 31.1911 22.8844 33.257C22.9168 33.7415 22.9736 33.8553 23.2578 34.0057C23.5565 34.1637 23.6285 34.1642 23.9199 34.0093C24.1977 33.8617 24.2686 33.7132 24.3912 33.0221C24.7255 31.1381 25.9793 29.8904 27.821 29.609C28.8909 29.4456 29.2359 28.9421 28.6555 28.391C28.3077 28.0606 27.8874 28.0372 26.8831 28.2924Z" fill="currentColor"/>
</svg>
