<svg width="40" height="26" viewBox="0 0 40 26" fill="none" xmlns="http://www.w3.org/2000/svg">
<path fill-rule="evenodd" clip-rule="evenodd" d="M18.3584 0.0804913C16.4343 0.318564 14.2666 1.14655 12.6807 2.24931C11.4056 3.13592 9.98724 4.67266 9.26842 5.94637L8.96505 6.48388L8.24202 6.61683C6.17371 6.99703 4.37079 7.92695 2.86773 9.38861C1.63302 10.5894 0.800269 11.9294 0.350279 13.4396C0.0171927 14.5573 -0.0286641 14.9855 0.0128254 16.5901C0.0443325 17.8113 0.0818447 18.1858 0.219103 18.6513C0.751994 20.459 1.61158 21.9062 2.87677 23.1261C4.29997 24.4982 5.90738 25.3552 7.947 25.8291C8.49314 25.956 9.31677 25.9668 20.3861 25.9919C29.2252 26.012 32.4088 25.996 32.9031 25.929C33.6501 25.8278 34.8527 25.4786 35.4377 25.1929C37.155 24.3544 38.6857 22.7929 39.3798 21.1716C39.8559 20.0595 40 19.3064 40 17.9308C40 16.5551 39.8526 15.7843 39.3853 14.7164C38.2944 12.2233 35.7515 10.2717 33.0201 9.83138L32.3962 9.73081L32.3057 9.43191C31.8967 8.08076 31.7472 7.67181 31.4163 6.99931C29.801 3.71673 26.7421 1.2638 23.1523 0.372413C21.7496 0.0241397 19.7824 -0.0956172 18.3584 0.0804913ZM21.4127 3.36838C22.2291 3.49716 23.3675 3.84915 24.05 4.18385C25.7301 5.00774 27.2679 6.47667 28.1223 8.07386C28.8189 9.37602 29.0818 10.3517 29.1385 11.8443C29.1618 12.4597 29.2024 12.9675 29.2288 12.973C29.2551 12.9785 29.9669 12.9926 30.8106 13.0043C32.6392 13.0297 33.0255 13.0954 33.9862 13.5444C37.6962 15.2788 37.6159 20.6311 33.8546 22.3055C32.8117 22.7697 33.3645 22.7522 20.5028 22.7287L8.76587 22.7072L8.21995 22.5421C7.40303 22.2949 6.81126 22.0204 6.1794 21.5956C2.77367 19.306 2.27603 14.71 5.1204 11.8148C6.50282 10.4076 8.04823 9.77761 10.1178 9.77761C11.1393 9.77761 11.1411 9.77685 11.3003 9.28462C11.4583 8.79619 12.0665 7.65634 12.4535 7.12309C12.9481 6.44163 13.8777 5.51536 14.5788 5.00561C15.6521 4.22511 17.1202 3.59864 18.3194 3.40949C18.6411 3.35875 18.9569 3.30725 19.0213 3.29496C19.376 3.22739 20.7948 3.27092 21.4127 3.36838Z" fill="currentColor"/>
</svg>
