<svg width="33" height="33" viewBox="0 0 33 33" fill="none" xmlns="http://www.w3.org/2000/svg">
<path fill-rule="evenodd" clip-rule="evenodd" d="M13.3792 0.0789051C10.4847 0.316857 7.37842 1.01864 5.22683 1.92076C2.76487 2.953 1.17264 4.23031 0.39183 5.79952L0.0307092 6.52537L0.00576869 16.1253C-0.0115176 22.7776 0.00963876 25.893 0.0747419 26.2715C0.213376 27.0788 0.649576 27.8623 1.40648 28.6636C3.29584 30.664 6.61894 32.0177 11.4689 32.7626C12.9709 32.9933 13.1204 33.0004 16.5 33C19.8533 32.9996 20.0391 32.991 21.4881 32.7685C26.394 32.015 29.6943 30.6744 31.5935 28.6636C32.3504 27.8623 32.7866 27.0788 32.9253 26.2715C32.9904 25.893 33.0115 22.7776 32.9942 16.1253L32.9693 6.52537L32.5909 5.76492C32.2865 5.15308 32.0679 4.86013 31.4729 4.26628C30.6127 3.40775 30.0073 2.99463 28.5832 2.29405C26.2806 1.16125 22.9591 0.351634 19.4761 0.0741084C18.2094 -0.0268799 14.6312 -0.0240533 13.3792 0.0789051ZM19.166 2.72953C24.6987 3.14907 29.4479 5.04592 30.1366 7.11126C30.2736 7.52198 30.2738 7.57971 30.1404 8.00131C29.4898 10.0567 24.8225 11.9677 19.3901 12.4026C17.9663 12.5167 15.0337 12.5167 13.6099 12.4026C7.9837 11.9521 3.23022 9.93182 2.78431 7.80164C2.69641 7.38176 2.94943 6.73891 3.39844 6.24151C3.85382 5.73708 4.96247 4.98005 5.80236 4.60017C7.85797 3.6702 10.8949 2.95258 13.7049 2.7327C14.9962 2.63171 17.8541 2.63 19.166 2.72953ZM3.25224 12.2322C4.8357 13.2442 7.85625 14.2538 10.6949 14.7198C14.1627 15.289 18.8335 15.2891 22.3051 14.72C25.2075 14.2443 28.1264 13.2685 29.7482 12.2319C29.9671 12.0921 30.1719 11.9775 30.2033 11.9775C30.2346 11.9775 30.2602 13.0307 30.2602 14.3178C30.2602 17.1705 30.2446 17.239 29.4049 18.0591C25.9461 21.4375 15.1204 22.5696 7.85685 20.3124C5.88311 19.699 4.16454 18.7557 3.35759 17.8426C2.77614 17.1846 2.73976 16.9769 2.73976 14.3178C2.73976 13.0307 2.76539 11.9775 2.79669 11.9775C2.82808 11.9775 3.03302 12.0921 3.25224 12.2322ZM3.6709 21.4255C6.03774 22.7174 8.7701 23.4916 12.5439 23.9396C13.5667 24.061 14.4875 24.0979 16.5 24.0979C18.5125 24.0979 19.4333 24.061 20.4561 23.9396C24.2333 23.4912 27.1343 22.6647 29.412 21.3878C29.8205 21.1588 30.1785 20.9714 30.2075 20.9714C30.2365 20.9714 30.2602 22.0245 30.2602 23.3117C30.2602 25.9708 30.2239 26.1785 29.6424 26.8364C28.2605 28.4001 24.9709 29.6526 20.7141 30.2359C19.4794 30.405 18.9319 30.4303 16.5 30.4303C14.0882 30.4303 13.5158 30.4044 12.3257 30.2408C10.4721 29.9861 8.39504 29.5242 7.34084 29.1321C5.34741 28.3908 4.08964 27.6647 3.35063 26.8286C2.77682 26.1793 2.73976 25.9658 2.73976 23.3117C2.73976 22.0245 2.76212 20.9714 2.78938 20.9714C2.81664 20.9714 3.21337 21.1758 3.6709 21.4255Z" fill="currentColor"/>
</svg>
