<svg width="39" height="20" viewBox="0 0 39 20" fill="none" xmlns="http://www.w3.org/2000/svg">
<path fill-rule="evenodd" clip-rule="evenodd" d="M18.166 0.00945321C18.086 0.0201951 17.7804 0.0528522 17.4869 0.081961C12.8013 0.546741 7.5904 3.05172 2.88619 7.10081C1.98362 7.87768 0 9.87362 0 10.0049C0 10.0692 1.01361 11.1422 1.72691 11.833C4.06653 14.0989 6.89223 16.1135 9.6965 17.515C12.2335 18.7829 14.3861 19.4801 16.9552 19.8659C17.7635 19.9872 17.9404 19.9969 19.403 19.9998C21.056 20.003 21.4211 19.9764 22.7015 19.7597C27.1259 19.0108 31.7922 16.627 36.1138 12.9076C37.0062 12.1396 39 10.1334 39 10.0035C39 9.93922 37.9864 8.86623 37.2731 8.17539C34.6602 5.64485 31.2821 3.32703 28.2313 1.97154C26.0924 1.02116 24.2276 0.469055 22.07 0.147324C21.3276 0.0365958 21.0408 0.0189487 19.7668 0.00537744C18.9664 -0.00315856 18.2461 -0.00133668 18.166 0.00945321ZM21.2705 2.59514C25.1142 3.03561 29.2363 4.906 33.2021 8.00908C33.7402 8.43012 34.6839 9.23332 35.1656 9.68036L35.3328 9.83546C35.4366 9.93181 35.4339 10.0969 35.327 10.1898C35.217 10.2856 34.8687 10.5914 34.5532 10.8694C30.6692 14.2921 26.15 16.6301 22.1437 17.2892C20.2248 17.605 18.2767 17.5805 16.4488 17.2175C14.5748 16.8454 12.9709 16.2878 11.0597 15.3439C8.559 14.1089 5.97782 12.3171 3.83437 10.328L3.66723 10.1729C3.56341 10.0766 3.56609 9.91149 3.67299 9.81857C3.78305 9.72285 4.13128 9.41704 4.44683 9.139C8.11967 5.90232 12.4038 3.6081 16.2084 2.84053C17.9856 2.48197 19.6002 2.40371 21.2705 2.59514ZM19.0149 5.0689C18.2479 5.13911 17.5032 5.38551 16.8317 5.79135C16.2809 6.12416 15.4883 6.91249 15.1671 7.44685C14.2723 8.93571 14.1787 10.7054 14.9145 12.2245C16.0869 14.6447 18.9753 15.7312 21.4704 14.6904C23.1696 13.9816 24.3506 12.4081 24.5505 10.5869C24.6536 9.64689 24.4901 8.74409 24.0586 7.8702C23.7694 7.28457 23.4541 6.86669 22.9427 6.39103C21.8969 5.4185 20.4643 4.93626 19.0149 5.0689ZM19.964 7.61009C20.4195 7.69171 20.9171 7.9534 21.2627 8.29297C22.2842 9.29662 22.2793 10.8612 21.2517 11.8419C20.7331 12.3369 20.2132 12.5458 19.5 12.5458C18.7781 12.5458 18.1972 12.3059 17.7162 11.8091C17.365 11.4464 17.182 11.1426 17.0664 10.7304C16.5729 8.97091 18.1401 7.28318 19.964 7.61009Z" fill="currentColor"/>
</svg>
