<svg width="55" height="70" viewBox="0 0 55 70" fill="none" xmlns="http://www.w3.org/2000/svg">
<path fill-rule="evenodd" clip-rule="evenodd" d="M1.46071 3.24018C1.76814 2.13589 3.28465 0.571559 4.34273 0.267311C4.79521 0.137089 11.5606 0.0336203 20.4345 0.0213083L35.7456 0L44.5898 8.81845L53.4341 17.6369V33.1313V48.6254L53.9682 49.1927C54.5003 49.7577 54.5024 49.7906 54.5024 57.7316V65.7033L53.8443 66.8199C53.1008 68.0812 51.9582 69.0415 50.6451 69.5089C49.3316 69.9765 5.30894 69.9765 3.99542 69.5089C2.68237 69.0415 1.53977 68.0812 0.796236 66.8199L0.138168 65.7033L0.0690842 55.8478L1.90735e-06 45.9926L0.603231 45.2775L1.20646 44.5625L1.20788 24.3531C1.2086 10.8554 1.29263 3.84347 1.46071 3.24018ZM13.1203 3.94386C13.0792 3.44948 13.1725 2.8926 13.3275 2.70627C13.5702 2.4148 13.0353 2.36887 9.48502 2.37598C5.07961 2.38497 4.50582 2.5088 3.91185 3.57758C3.65784 4.03454 3.59564 8.00705 3.58875 24.2013L3.58044 44.2592L12.5126 44.3267L21.4444 44.3941L23.2548 46.351L25.065 48.3082L38.0626 48.3044L51.0601 48.3008V33.7396V19.1783H44.2558H37.4515L36.4278 18.58C35.8279 18.2293 35.1563 17.5595 34.8047 16.9612L34.2048 15.9402V9.15396V2.36769H27.3203H20.4357V3.7883V5.20891H22.1633C24.3435 5.20891 24.9463 5.56454 24.9463 6.85067C24.9463 7.34836 24.8077 7.8702 24.6384 8.01036C24.4689 8.15053 23.4808 8.29685 22.4425 8.33521L20.5544 8.40529V9.8259V11.2465L22.4425 11.3166C23.4808 11.355 24.4689 11.5013 24.6384 11.6414C25.0372 11.9717 25.0372 13.5993 24.6384 13.9296C24.4689 14.0697 23.4808 14.2161 22.4425 14.2544L20.5544 14.3245V15.7451V17.1657L22.4425 17.2358C23.4808 17.2742 24.4689 17.4205 24.6384 17.5607C24.8077 17.7008 24.9463 18.2227 24.9463 18.7204C24.9463 20.0065 24.3435 20.3621 22.1633 20.3621H20.4357V21.7827V23.2033H22.2319C24.5318 23.2033 24.9463 23.419 24.9463 24.6154C24.9463 26.015 24.5261 26.2813 22.3181 26.2813H20.4357V27.6776V29.074L22.4624 29.1574C24.7267 29.2507 24.9368 29.3925 24.9427 30.8308C24.9453 31.4604 24.816 31.7801 24.4872 31.9555C23.7982 32.3232 18.1819 32.2749 17.8685 31.8987C17.7303 31.7325 17.5839 31.0667 17.5428 30.4189L17.4683 29.2409L15.5802 29.1709C14.5418 29.1325 13.5538 28.9862 13.3843 28.846C12.9855 28.5157 12.9855 26.8882 13.3843 26.5579C13.5538 26.4177 14.5418 26.2714 15.5802 26.233L17.4683 26.163L17.539 24.6831L17.6095 23.2033H15.6279C14.403 23.2033 13.5374 23.0949 13.3613 22.9192C12.9812 22.5402 12.9971 20.9592 13.3843 20.6387C13.5538 20.4985 14.5418 20.3522 15.5802 20.3138L17.4683 20.2437L17.539 18.7639L17.6095 17.2841H15.8022C13.4906 17.2841 13.0764 17.0696 13.0764 15.872C13.0764 14.4725 13.4966 14.2061 15.7046 14.2061H17.5869V12.7855V11.3649H15.7046C13.4966 11.3649 13.0764 11.0985 13.0764 9.699C13.0764 8.5026 13.4909 8.28691 15.7908 8.28691H17.5869V6.8663V5.44568L15.9845 5.44213C13.8534 5.43763 13.2169 5.1045 13.1203 3.94386ZM13.3613 38.7827C13.1806 38.6025 13.0764 37.6936 13.0764 36.2967V34.0947H19.0113H24.9463V36.2967C24.9463 37.6936 24.8421 38.6025 24.6614 38.7827C24.2574 39.1857 13.7653 39.1857 13.3613 38.7827ZM40.0909 56.7883C40.2077 56.1781 38.8407 54.8061 37.809 54.4978C36.5195 54.1123 35.672 54.1573 34.5374 54.6711C32.8495 55.4359 31.9956 57.2036 32.0125 59.8987C32.0277 62.3372 32.9566 64.0829 34.6127 64.7868C35.6219 65.2156 37.004 65.1962 37.8798 64.7406C38.3363 64.5032 38.6169 64.4617 38.671 64.6237C38.7173 64.7617 39.1199 64.8746 39.566 64.8746H40.3772V62.1518V59.429H38.3593H36.3414V60.376C36.3414 61.2975 36.3635 61.3231 37.1583 61.3231C38.1001 61.3231 38.3631 61.5997 38.0231 62.2328C37.6991 62.8368 36.4881 63.3053 35.7372 63.1174C33.8613 62.6478 33.6978 57.2178 35.5345 56.3832C36.4409 55.9712 36.7894 56.051 37.5949 56.8546C38.2651 57.5227 38.4189 57.5746 39.1767 57.3873C39.6545 57.2689 40.0484 57.0111 40.0909 56.7883ZM22.0975 57.7119C22.0975 56.5158 21.3746 55.2372 20.4286 54.7596C20.0644 54.5759 18.83 54.4625 17.1715 54.4604L14.5008 54.4568V59.6657V64.8746H15.5691H16.6374V62.8621V60.8496H17.4189C18.1702 60.8496 18.2358 60.9277 19.1094 62.8621L20.0181 64.8746H21.2937H22.5692L21.4746 62.677L20.3799 60.479L21.2386 59.6226C21.9684 58.8948 22.0975 58.6074 22.0975 57.7119ZM30.1691 59.6269C29.3856 56.8797 28.7447 54.5925 28.7447 54.5444C28.7447 54.4961 28.1265 54.4568 27.3708 54.4568H25.9973L24.6056 59.2514C23.8405 61.8883 23.1625 64.2389 23.0993 64.4745C22.9982 64.8514 23.1219 64.8943 24.123 64.8297C25.2295 64.7584 25.2694 64.7293 25.5272 63.8092L25.7924 62.8621H27.3203H28.8482L29.1133 63.8092C29.3697 64.7243 29.416 64.7586 30.486 64.8285C31.0952 64.868 31.5935 64.838 31.5935 64.7612C31.5935 64.6845 30.9525 62.3741 30.1691 59.6269ZM16.6374 59.0141V57.6826V56.351H17.779C19.0083 56.351 19.5915 56.6592 19.8194 57.4287C20.0723 58.2832 19.4503 58.7814 17.9787 58.9031L16.6374 59.0141ZM26.3707 60.7085C26.3707 60.5354 27.0646 58.0261 27.2481 57.5348C27.3545 57.2505 28.2438 59.9958 28.2644 60.672C28.2675 60.7698 27.8426 60.8496 27.3203 60.8496C26.798 60.8496 26.3707 60.7861 26.3707 60.7085Z" fill="#C4BBF0"/>
</svg>
