<svg width="62" height="62" viewBox="0 0 62 62" fill="none" xmlns="http://www.w3.org/2000/svg">
<path fill-rule="evenodd" clip-rule="evenodd" d="M26.0445 0.463245C25.5615 0.880868 25.4988 1.08461 25.4037 2.54122L25.2982 4.15595L23.7473 4.56948C21.6948 5.11656 19.3802 6.07015 17.5298 7.13058C16.7015 7.60533 15.9693 7.99371 15.9024 7.99371C15.8357 7.99371 15.4362 7.63555 15.0147 7.19785C14.5933 6.75995 14.0022 6.27194 13.7012 6.11304C12.6638 5.56577 12.1743 5.87499 8.98677 9.0908C6.12604 11.9767 6.00953 12.1253 6.00953 12.8855C6.00953 13.5762 6.14252 13.8172 7.05694 14.7833L8.10415 15.8899L7.25195 17.3522C6.24041 19.0878 4.98171 22.2229 4.52053 24.1552L4.18981 25.5409H2.66164C1.23099 25.5409 1.09703 25.5773 0.56664 26.1108L0 26.6807V31V35.3193L0.56664 35.8892C1.09703 36.4227 1.23099 36.4591 2.66164 36.4591H4.18981L4.52053 37.8448C4.97105 39.7328 6.23673 42.8787 7.25758 44.6478L8.10143 46.1101L7.05558 47.2167C6.14271 48.1824 6.00953 48.424 6.00953 49.1145C6.00953 49.8747 6.12604 50.0233 8.98677 52.9092C12.1743 56.125 12.6638 56.4342 13.7012 55.887C14.0022 55.7281 14.5933 55.2401 15.0147 54.8022C15.4362 54.3644 15.8357 54.0063 15.9024 54.0063C15.9693 54.0063 16.7015 54.3947 17.5298 54.8694C19.3802 55.9298 21.6948 56.8834 23.7473 57.4305L25.2982 57.844L25.4037 59.4588C25.4988 60.9154 25.5615 61.1191 26.0445 61.5368C26.5734 61.9943 26.6323 62 30.8876 62C35.7172 62 35.8891 61.9575 36.2425 60.6783C36.4341 59.9842 36.5461 46.5975 36.3602 46.5975C36.3137 46.5975 35.5505 46.7724 34.664 46.9861C31.2469 47.81 26.843 47.3337 23.8292 45.8143C13.8758 40.7964 11.4453 27.8643 18.9514 19.8616C22.2318 16.3643 26.2076 14.6211 30.8964 14.624C32.3774 14.625 33.557 14.747 34.664 15.0139C35.5505 15.2276 36.3137 15.4025 36.3602 15.4025C36.5461 15.4025 36.4341 2.01578 36.2425 1.32169C35.8891 0.042503 35.7172 0 30.8876 0C26.6323 0 26.5734 0.005654 26.0445 0.463245ZM46.4991 1.12965C45.8456 1.47182 45.2072 2.01519 44.7811 2.59191L44.103 3.50943H42.0187H39.9343V5.36164V7.21384H42.0617C44.1856 7.21384 44.1896 7.21481 44.4684 7.75C44.8276 8.4396 45.8675 9.42205 46.6675 9.82739C47.6571 10.3288 48.86 10.4154 50.0338 10.0699C52.6832 9.29025 54.0811 6.59091 53.2685 3.8245C52.9539 2.75354 51.348 1.13842 50.2831 0.821988C48.9267 0.418988 47.6591 0.521931 46.4991 1.12965ZM55.0322 11.4628C53.1683 12.4421 52.1982 14.2528 52.3994 16.3774L52.501 17.4497L50.5607 19.0582L48.6204 20.6667H44.2773H39.9343V22.5189V24.3711L44.7322 24.3699C48.4636 24.3689 49.6457 24.3081 50.0499 24.096C50.3357 23.946 51.5626 22.9862 52.7763 21.963L54.9832 20.1028L55.7462 20.3762C58.9293 21.5167 62.3295 18.7287 61.9744 15.2692C61.627 11.8843 58.0073 9.89953 55.0322 11.4628ZM29.0732 18.3272C26.395 18.7519 23.8798 20.0363 22.0026 21.9375C20.4559 23.504 19.5837 24.8834 18.8414 26.9378C18.3773 28.2221 18.3246 28.6366 18.3246 31C18.3246 33.3634 18.3773 33.7779 18.8414 35.0622C19.5932 37.1427 20.4628 38.508 22.055 40.1076C23.1761 41.2337 23.8303 41.6995 25.2536 42.3844C26.2378 42.858 27.5227 43.3587 28.1091 43.4971C30.3181 44.0186 33.5818 43.7262 35.7577 42.8118L36.4449 42.523V31V19.477L35.7674 19.1921C33.8583 18.39 31.0034 18.0211 29.0732 18.3272ZM55.5878 26.3919C54.5439 26.7838 53.5715 27.5871 53.0682 28.4736L52.6319 29.2424L46.2831 29.2437L39.9343 29.2453V31V32.7547L46.2831 32.7652L52.6319 32.776L53.2134 33.6865C53.5537 34.2193 54.1911 34.8419 54.7492 35.187C55.5926 35.7085 55.8751 35.7767 57.1875 35.7767C58.5007 35.7767 58.7818 35.7087 59.6258 35.1862C62.7678 33.2412 62.7913 28.7729 59.6694 26.8409C58.5699 26.1605 56.7408 25.9593 55.5878 26.3919ZM39.9343 39.4811V41.3333H44.2773H48.6204L50.5607 42.9418L52.501 44.5503L52.3994 45.6226C52.1982 47.7472 53.1683 49.5579 55.0322 50.5372C59.8536 53.0704 64.4125 46.6809 60.5532 42.7995C59.2458 41.4844 57.5709 41.0598 55.803 41.595L54.9386 41.8566L52.6284 39.9169C51.3579 38.85 50.1135 37.8988 49.8632 37.803C49.6128 37.7073 47.2764 37.6289 44.6712 37.6289H39.9343V39.4811ZM47.4935 51.8488C46.256 52.2274 44.9527 53.2833 44.4095 54.3475C44.1978 54.762 44.0687 54.7862 42.0599 54.7862H39.9343V56.6384V58.4906H42.0293H44.1245L44.7268 59.35C45.9095 61.0376 48.0995 61.7855 50.1635 61.2067C51.3449 60.8752 52.93 59.3278 53.2685 58.1755C54.0682 55.4532 52.6889 52.7228 50.1249 51.9535C49.0969 51.645 48.2674 51.6121 47.4935 51.8488Z" fill="#C4BBF0"/>
</svg>
