<svg width="68" height="69" viewBox="0 0 68 69" fill="none" xmlns="http://www.w3.org/2000/svg">
<path fill-rule="evenodd" clip-rule="evenodd" d="M67.7772 0.148379C67.8277 0.229988 67.8984 0.296758 67.9345 0.296758C67.9706 0.296758 68 0.229988 68 0.148379C68 0.0667706 67.9292 0 67.8427 0C67.7563 0 67.7267 0.0667706 67.7772 0.148379ZM26.3359 1.99525C25.9274 2.09956 25.4067 2.26026 25.1785 2.3524C24.3065 2.70451 22.9477 3.76853 22.2907 4.6137C21.6244 5.47074 21.5923 5.49092 21.0746 5.38067C20.7823 5.31835 19.8746 5.2682 19.0577 5.26909C17.69 5.27072 17.4949 5.30856 16.5959 5.74643C14.7861 6.6281 13.3242 8.64798 13.0769 10.6087L12.9677 11.4748L11.928 11.6797C8.60067 12.3351 6.23926 14.7032 5.52406 18.1023C5.25922 19.3605 5.31373 21.2602 5.65002 22.4919L5.85604 23.2461L4.58651 23.8956C1.00117 25.7295 -0.705354 29.5942 0.272007 33.6669C0.644236 35.2179 1.25264 36.3743 2.31125 37.5429L3.13116 38.448L2.67471 38.9213C1.52134 40.1171 0.713602 42.1601 0.713602 43.8812C0.713602 45.5972 1.65502 47.8474 2.88845 49.0797C3.62786 49.8183 5.23546 50.7452 5.77761 50.7455C5.99001 50.7457 5.99432 50.8486 5.82024 51.7472C4.85357 56.7363 7.35936 60.9973 12.0023 62.2597C13.3198 62.6179 15.7415 62.5946 17.0648 62.2111L18.0424 61.9277L18.546 62.8978C19.1489 64.0594 20.5448 65.506 21.6088 66.0716C22.5983 66.5977 24.4427 67.0674 25.519 67.0674C28.0657 67.0674 30.6807 65.6904 32.1323 63.5849L32.7035 62.7565L33.1376 63.4533C34.145 65.0702 35.8291 66.274 37.7816 66.7728C39.2397 67.1453 40.3169 67.1453 41.7751 66.7728C43.9446 66.2185 45.7636 64.8009 46.754 62.8926L47.2548 61.9277L48.2325 62.2111C49.5558 62.5946 51.9775 62.6179 53.295 62.2597C56.4086 61.4132 58.7495 59.055 59.4586 56.0508C59.7278 54.9105 59.7357 53.0816 59.4771 51.7472C59.303 50.8486 59.3073 50.7457 59.5197 50.7455C59.9524 50.7454 61.5733 49.8904 62.1811 49.3418C63.8588 47.8278 64.8678 44.9053 64.4626 42.7332C64.2112 41.3853 63.736 40.324 62.9451 39.3435L62.196 38.4149L63.0011 37.5264C64.0451 36.3738 64.6545 35.212 65.0253 33.6669C66.0023 29.5953 64.2825 25.7226 60.6787 23.8791L59.4269 23.2387L59.6332 22.4882C60.4905 19.369 59.5657 15.7019 57.4218 13.719C56.3393 12.7179 54.8625 11.9737 53.3775 11.6811L52.3457 11.4779L52.172 10.4474C51.8305 8.42289 50.5021 6.62364 48.7014 5.74643C47.8023 5.30856 47.6073 5.27072 46.2396 5.26909C45.4227 5.2682 44.515 5.31835 44.2227 5.38067C43.705 5.49092 43.6729 5.47074 43.0066 4.6137C42.2277 3.61155 40.8759 2.63136 39.6496 2.17939C39.019 1.94703 38.4651 1.87136 37.4018 1.8721C35.6355 1.87343 34.6239 2.23266 33.5021 3.25677L32.7207 3.97033L32.0536 3.37889C30.4965 1.99867 28.3543 1.48023 26.3359 1.99525ZM29.2678 4.06143C30.1626 4.3303 30.9592 4.95497 31.3588 5.70058L31.6832 6.30611L31.7221 29.9359L31.761 53.5656L31.0667 53.0362C29.471 51.8195 27.8618 51.2818 25.816 51.2818C22.5275 51.2818 19.8222 52.919 21.0629 54.1584C21.4522 54.5473 21.7751 54.5327 22.646 54.0869C24.9649 52.8995 27.7696 53.0951 29.7408 54.5819C30.7322 55.3297 31.2434 56.0912 31.5482 57.2743C32.2226 59.894 30.625 63.1749 28.0604 64.436C27.1481 64.8847 26.9835 64.9159 25.5221 64.9157C24.1377 64.9156 23.8624 64.8702 23.11 64.5181C22.1708 64.0784 20.8697 62.9461 20.5034 62.2496C20.3733 62.0023 20.0928 61.3334 19.8803 60.7632C19.3782 59.4162 19.1204 59.3062 17.7497 59.8541C14.6557 61.0905 11.4023 60.5427 9.40276 58.4485C8.16798 57.1553 7.80363 56.2387 7.72758 54.2326C7.65212 52.2456 7.88562 51.211 8.66483 50.0808C9.31987 49.1309 9.80261 48.6537 10.83 47.941C11.2534 47.6474 11.6709 47.2938 11.7581 47.1553C11.9867 46.7922 11.7132 46.1291 11.2214 45.8537C10.8434 45.642 10.7681 45.6512 10.1093 45.9906C9.72077 46.1907 8.83996 46.9173 8.15194 47.6052L6.90083 48.8559L6.15548 48.6841C4.92101 48.3993 4.02891 47.5972 3.33332 46.1459C2.92247 45.2887 2.87093 45.0329 2.86929 43.846C2.86706 42.3265 3.18909 41.404 4.02608 40.5317C5.01666 39.4994 5.17545 39.4387 6.23406 39.688C6.75155 39.8098 7.71733 39.9106 8.38024 39.9118C9.78449 39.9143 10.3684 39.6135 10.3684 38.8875C10.3684 38.1273 9.93006 37.9215 8.08778 37.8166C5.986 37.6971 4.98547 37.3418 4.01182 36.3692C1.54347 33.9034 1.378 29.6479 3.65237 27.1238C4.39861 26.2957 5.46465 25.6371 6.85894 25.1425C8.20987 24.6634 8.47753 24.3324 8.14986 23.5448C7.60014 22.2226 7.37644 20.9913 7.44417 19.6602C7.63192 15.9709 9.69552 13.8669 13.4364 13.551C14.8723 13.4298 15.0217 13.2632 15.0486 11.754C15.0964 9.06626 16.7841 7.23348 19.2111 7.23348C19.716 7.23348 20.363 7.31064 20.6492 7.40501C21.1578 7.57268 21.1713 7.5979 21.2594 8.54026C21.3797 9.82774 21.8111 10.7901 22.3256 10.9192C23.2425 11.1491 23.7762 10.4121 23.4589 9.35426C23.2128 8.53358 23.2501 7.03065 23.5311 6.43876C23.8805 5.70355 25.251 4.518 26.1513 4.17227C27.0671 3.82061 28.319 3.7761 29.2678 4.06143ZM39.0972 4.16263C40.1173 4.54381 41.2992 5.59107 41.8905 6.63774C42.139 7.07768 42.5062 7.54493 42.7067 7.6761C43.0464 7.89852 43.1422 7.89154 44.1294 7.57401C46.7721 6.72365 48.8223 7.48944 49.818 9.6985C50.1329 10.3974 50.2351 10.8679 50.2569 11.722C50.3006 13.4316 50.2697 13.4003 52.0861 13.5773C53.4375 13.7089 54.6537 14.1263 55.5043 14.7501C57.8166 16.4456 58.5266 19.987 57.2232 23.3227C56.818 24.3597 57.0022 24.6343 58.4424 25.1397C61.0359 26.0499 62.5963 27.666 63.0799 29.9428C63.7026 32.8747 62.4137 36.0781 60.1467 37.2335C58.8324 37.9031 58.7861 38.7267 60.0183 39.5145C60.9629 40.1186 61.699 40.9325 62.1171 41.8353C62.3627 42.3652 62.4295 42.7982 62.428 43.846C62.4264 45.0302 62.3741 45.2906 61.9664 46.1459C61.1135 47.9346 59.8117 48.8167 58.0247 48.8167C57.4289 48.8167 57.2725 48.8774 57.0692 49.1874C56.8003 49.5974 56.8241 49.8316 57.2942 51.4101C57.9013 53.4487 57.6345 55.9969 56.6518 57.5457C54.9095 60.2913 51.078 61.2648 47.5552 59.857C46.1762 59.3059 45.9197 59.4147 45.417 60.7632C45.2045 61.3334 44.924 62.0023 44.7939 62.2496C44.4276 62.9461 43.1265 64.0784 42.1873 64.5181C41.4352 64.8702 41.1594 64.9156 39.7783 64.9156C38.3973 64.9156 38.1214 64.8702 37.3694 64.5181C36.317 64.0254 35.2012 63.0007 34.6843 62.052C34.0311 60.8529 33.8369 59.8026 33.8369 57.4657V55.3454H36.3509H38.8648L39.2102 55.9582C39.736 56.8912 40.6363 57.4649 41.6952 57.5414C42.8386 57.6239 43.5486 57.3739 44.2975 56.6246C46.3939 54.5274 44.9015 51.0424 41.9068 51.0424C40.9653 51.0424 39.8158 51.7045 39.2896 52.5498L38.8427 53.2681H36.3399H33.8369V47.9265V42.5848L37.2904 42.5943L40.7438 42.6037L42.0064 43.0933L43.2689 43.583L43.2769 44.7531C43.2836 45.7119 43.3617 46.0923 43.7092 46.8581C44.7501 49.1533 47.3835 50.2615 49.8814 49.4555C50.9101 49.1236 52.1128 48.0232 52.6572 46.916C53.0143 46.1897 53.0716 45.8956 53.0684 44.8105C53.0648 43.6641 53.0188 43.4644 52.5622 42.6167C51.617 40.8621 50.1483 39.9848 48.1706 39.9934C46.7824 39.9995 45.7006 40.4162 44.8162 41.2857L44.284 41.8091L42.6624 41.1623L41.0409 40.5155L37.4389 40.5115L33.8369 40.5075V37.3915V34.2756H41.2683C48.2165 34.2756 48.705 34.2925 48.7794 34.5352C49.2296 36.0026 50.2324 37.1743 51.5502 37.7729C53.9622 38.8688 56.7813 37.8763 57.9823 35.5083C58.3699 34.7443 58.4195 34.495 58.4195 33.3111C58.4195 32.2251 58.357 31.849 58.0845 31.2967C57.5439 30.2008 56.785 29.4338 55.7255 28.9129C54.8806 28.4974 54.5989 28.4342 53.5921 28.4342C52.5858 28.4342 52.3034 28.4974 51.4603 28.9121C50.3041 29.4807 49.414 30.4237 49.0086 31.5093L48.7236 32.2725L41.2803 32.3109L33.8369 32.3493V29.3062V26.2631H37.4604H41.0838L42.6122 25.6506C43.5691 25.267 44.2056 25.0868 44.3143 25.1684C44.4098 25.24 44.8152 25.5491 45.2152 25.8551C47.6587 27.7245 51.2198 26.8732 52.6361 24.081C53.0168 23.3305 53.0722 23.0612 53.0722 21.9601C53.0722 20.879 53.0128 20.578 52.6563 19.8527C52.1307 18.7835 51.0189 17.7723 49.9087 17.3538C48.1551 16.6928 45.8152 17.2296 44.6019 18.5713C43.6959 19.5728 43.2836 20.6471 43.2757 22.0257L43.2689 23.2043L42.0806 23.6881L40.8923 24.172L37.3646 24.1788L33.8369 24.1858V19.2151V14.2444H35.9686H38.1L38.5492 14.9663C39.1677 15.96 40.3145 16.5363 41.4816 16.4395C44.8013 16.1646 45.6746 11.6623 42.6807 10.2566C41.1071 9.51763 39.1836 10.1206 38.4344 11.5877L38.1384 12.1671H35.9794H33.8203L33.8657 9.0768C33.9112 5.98843 33.9115 5.98621 34.3194 5.37103C34.544 5.03243 34.8954 4.64545 35.1005 4.51117C36.179 3.80533 37.77 3.6666 39.0972 4.16263ZM42.1083 12.3413C42.8515 13.039 42.2942 14.3928 41.2637 14.3928C40.2496 14.3928 39.7005 13.1043 40.3983 12.3621C40.8245 11.9091 41.6371 11.8993 42.1083 12.3413ZM24.8136 13.5742C23.7184 13.8816 23.0558 14.253 22.0284 15.1347C20.9419 16.0671 20.1923 16.4702 19.5464 16.4695C18.9849 16.4689 18.1589 16.0177 17.7077 15.4651C17.0955 14.7154 15.8642 15.1495 15.8642 16.1152C15.8642 16.601 16.7264 17.513 17.6757 18.0316C18.3325 18.3904 18.6373 18.4621 19.5086 18.4634C20.7853 18.4653 21.7756 18.0325 23.0565 16.9127C24.6294 15.5378 25.8449 15.1795 27.3412 15.6497C28.3278 15.9597 28.5929 15.9203 28.976 15.4072C29.4491 14.7737 29.2332 14.2963 28.2759 13.8585C27.262 13.3948 25.8618 13.2798 24.8136 13.5742ZM49.5874 19.4406C50.8843 20.1015 51.4308 21.8577 50.7662 23.229C50.1247 24.5529 48.4192 25.166 47.0123 24.5789C46.0679 24.1846 45.271 22.913 45.2783 21.8117C45.2816 21.3065 45.7581 20.2956 46.1855 19.8871C47.0124 19.097 48.5238 18.8986 49.5874 19.4406ZM23.6707 19.7675C23.1494 20.511 23.5329 21.1915 24.5827 21.3853C26.2759 21.6976 27.1533 23.2239 26.447 24.628C26.1165 25.2853 25.3225 25.818 24.6734 25.818C24.0904 25.818 23.4395 26.3659 23.4395 26.8566C23.4395 27.3092 24.0909 27.8953 24.594 27.8953C25.9989 27.8953 27.6975 26.7734 28.3616 25.4067C28.8153 24.4734 28.8285 22.9232 28.3912 21.9525C27.695 20.4075 26.2931 19.4377 24.7555 19.4377C24.0418 19.4377 23.864 19.4917 23.6707 19.7675ZM47.725 21.0988C47.3244 21.3258 47.21 21.5184 47.2073 21.9714C47.2046 22.4219 47.7625 22.9988 48.2009 22.9988C48.7203 22.9988 49.1855 22.5081 49.1855 21.9601C49.1855 21.1531 48.4229 20.7033 47.725 21.0988ZM11.2764 24.0206C10.8952 24.4014 10.8681 25.0991 11.2225 25.3967C11.3655 25.5169 11.9503 25.8396 12.5221 26.1141C13.8624 26.7574 15.063 27.9438 15.6763 29.2307C16.4403 30.8342 16.4352 30.9123 15.5294 31.4233C14.4426 32.0364 13.3069 33.0957 12.8853 33.8893L12.5291 34.56L12.8375 34.9741C13.0393 35.2455 13.3085 35.4046 13.6177 35.4352C14.0082 35.4739 14.1728 35.3856 14.5685 34.9246C15.7798 33.5142 16.9503 32.7958 18.5215 32.4981C20.8299 32.0609 23.6412 33.5059 24.7041 35.6761C24.9174 36.1118 25.1807 37.0219 25.2892 37.699C25.5023 39.0283 25.7075 39.3205 26.4279 39.3205C26.6934 39.3205 26.9446 39.1802 27.1527 38.916C27.4312 38.5622 27.4584 38.399 27.3682 37.6177C26.8862 33.4403 23.5525 30.4177 19.4271 30.4177H18.2993L17.9706 29.3985C17.325 27.396 15.5485 25.3363 13.6318 24.368C12.3268 23.7086 11.6837 23.6138 11.2764 24.0206ZM54.5995 30.6482C55.7892 31.1446 56.4355 32.0926 56.4355 33.3417C56.4355 34.9713 55.2538 36.1303 53.5921 36.1303C52.486 36.1303 51.7108 35.7091 51.1466 34.8017C50.2385 33.3409 50.7416 31.57 52.2823 30.8031C53.1683 30.3619 53.8107 30.319 54.5995 30.6482ZM52.8494 32.6434C52.2333 33.2589 52.6958 34.2756 53.5921 34.2756C54.1236 34.2756 54.6318 33.8177 54.6318 33.3392C54.6318 32.4907 53.46 32.0334 52.8494 32.6434ZM19.0375 39.0016C17.6337 40.0176 17.0014 41.235 16.9271 43.0656C16.8788 44.2548 16.9115 44.4412 17.3207 45.3147C17.8587 46.4631 18.7718 47.3918 19.8746 47.9121C20.5672 48.2388 20.8968 48.2974 22.0404 48.2974C23.1525 48.2974 23.5225 48.2351 24.1478 47.9425C25.1279 47.484 25.4139 46.9194 24.9689 46.3219C24.5963 45.8214 24.1808 45.757 23.3915 46.0777C21.1896 46.9722 18.9132 45.4824 18.9298 43.1577C18.9365 42.2235 19.4342 41.1777 20.0705 40.7614C20.7121 40.3413 20.9144 40.0489 20.9144 39.5408C20.9144 39.1921 20.8144 38.9706 20.5842 38.8096C20.104 38.4735 19.6976 38.524 19.0375 39.0016ZM49.1412 42.1386C49.737 42.3039 50.6746 43.1946 50.9096 43.8186C51.1588 44.4799 51.0955 45.5085 50.7659 46.1538C49.6731 48.2935 46.5345 48.2013 45.5871 46.0017C45.2357 45.1856 45.2074 44.8338 45.4292 44.0361C45.8506 42.5204 47.4925 41.681 49.1412 42.1386ZM47.4509 44.1916C46.934 44.7621 47.3636 45.8491 48.1061 45.8491C49.1288 45.8491 49.5995 44.5807 48.7796 44.0337C48.47 43.8272 47.6979 43.9189 47.4509 44.1916ZM42.8509 53.4423C43.6169 54.1612 43.0818 55.4938 42.0272 55.4938C40.9607 55.4938 40.4497 54.3695 41.126 53.5107C41.5245 53.0044 42.3495 52.9718 42.8509 53.4423ZM67.7895 68.6796C67.7255 68.7831 67.7133 68.9077 67.7623 68.9567C67.8953 69.0895 68.0403 68.8942 67.9684 68.6791C67.9182 68.5283 67.8831 68.5283 67.7895 68.6796Z" fill="#C4BBF0"/>
</svg>
