<svg width="95" height="68" viewBox="0 0 95 68" fill="none" xmlns="http://www.w3.org/2000/svg">
<path fill-rule="evenodd" clip-rule="evenodd" d="M43.1234 0.224517C42.8237 0.522997 42.8237 8.44402 43.1234 8.7425C43.424 9.04185 52.255 9.04185 52.5555 8.7425C52.8552 8.44402 52.8552 0.522997 52.5555 0.224517C52.255 -0.074839 43.424 -0.074839 43.1234 0.224517ZM19.7992 11.026C19.5469 11.3038 19.508 11.8601 19.508 15.199C19.508 18.0043 19.5678 19.1327 19.7279 19.3507C19.9273 19.6222 20.3831 19.6459 24.6112 19.6033L29.2744 19.5565L29.3218 15.3501C29.3643 11.5508 29.3399 11.1226 29.0682 10.9246C28.8466 10.7633 27.6222 10.7055 24.4289 10.7055C20.4494 10.7055 20.0663 10.732 19.7992 11.026ZM31.5746 10.9808C31.3395 11.2152 31.2981 11.8521 31.2981 15.2398C31.2981 18.1046 31.3574 19.2825 31.5093 19.4338C31.8098 19.7331 40.6408 19.7331 40.9414 19.4338C41.0936 19.2822 41.1525 18.0837 41.1525 15.1459C41.1525 11.2939 41.1337 11.0583 40.8122 10.8869C40.604 10.7759 38.7961 10.7055 36.1614 10.7055C32.4776 10.7055 31.8109 10.7454 31.5746 10.9808ZM43.1887 10.9808C42.9536 11.2152 42.9123 11.8521 42.9123 15.2398C42.9123 18.1046 42.9716 19.2825 43.1234 19.4338C43.424 19.7331 52.255 19.7331 52.5555 19.4338C52.7074 19.2825 52.7667 18.1046 52.7667 15.2398C52.7667 11.8521 52.7253 11.2152 52.4902 10.9808C52.2536 10.7453 51.5813 10.7055 47.8395 10.7055C44.0976 10.7055 43.4254 10.7453 43.1887 10.9808ZM73.4828 14.0794C71.2079 17.5065 70.0825 21.6718 70.5177 25.0527C70.7349 26.7391 71.1146 27.9945 71.8364 29.4133C72.0912 29.9141 72.2996 30.3973 72.2996 30.487C72.2996 30.7208 69.9942 31.5204 68.3402 31.8602C67.0723 32.1207 63.694 32.1594 34.3465 32.2502L1.76048 32.351L1.26371 32.718C0.990429 32.9199 0.583581 33.3931 0.359392 33.7696C-0.0335534 34.4298 -0.0446394 34.5537 0.0479219 37.2584C0.19961 41.6941 0.927782 45.7899 2.28769 49.857C4.57234 56.6889 8.61847 61.799 13.7889 64.3824C20.7167 67.8441 32.8435 68.9574 43.7041 67.1289C53.6094 65.4612 61.954 61.3266 68.4129 54.8861C72.9153 50.3965 76.9958 43.9536 79.6878 37.0832C79.9144 36.5048 80.1668 35.9439 80.2483 35.8369C80.3329 35.7259 81.2474 35.5999 82.3752 35.544C86.2113 35.3536 89.1653 34.1348 91.6674 31.7105C93.0284 30.392 93.9776 29.0114 94.5852 27.4672C94.8133 26.8874 95 26.3979 95 26.3793C95 26.3607 94.5052 26.0256 93.9002 25.6349C91.6732 24.196 88.3094 23.5084 84.8413 23.783C83.7989 23.8656 82.7983 23.9343 82.6179 23.9355C82.3564 23.9376 82.2223 23.6726 81.9557 22.6273C81.28 19.9769 79.9491 17.7952 77.7245 15.6903C76.6407 14.6649 74.5353 13.1592 74.1853 13.1592C74.1348 13.1592 73.8188 13.5734 73.4828 14.0794ZM8.28095 21.6071C7.98127 21.9056 7.98127 29.8266 8.28095 30.1251C8.43422 30.2777 9.73431 30.3354 13.026 30.3354C17.3284 30.3354 17.5691 30.318 17.7421 29.9964C17.8517 29.7922 17.9242 28.1246 17.9242 25.8025C17.9242 22.5318 17.8823 21.9059 17.6478 21.6721C17.4109 21.4364 16.7329 21.3968 12.9317 21.3968C9.71337 21.3968 8.43405 21.4546 8.28095 21.6071ZM19.7844 21.6721C19.5497 21.9061 19.508 22.5357 19.508 25.8451C19.508 28.6865 19.5676 29.8238 19.7279 30.042C19.9273 30.3135 20.3831 30.3372 24.6112 30.2946L29.2744 30.2478L29.3216 26.0633C29.3548 23.1235 29.3091 21.8069 29.1681 21.6378C29.0075 21.445 28.0775 21.3968 24.5142 21.3968C20.7005 21.3968 20.0213 21.4364 19.7844 21.6721ZM31.5746 21.6721C31.3395 21.9065 31.2981 22.5434 31.2981 25.9311C31.2981 28.7959 31.3574 29.9738 31.5093 30.1251C31.8098 30.4244 40.6408 30.4244 40.9414 30.1251C41.2411 29.8266 41.2411 21.9056 40.9414 21.6071C40.7883 21.4546 39.509 21.3968 36.2906 21.3968C32.4894 21.3968 31.8114 21.4364 31.5746 21.6721ZM43.2202 21.5861C42.9409 21.7482 42.9123 22.1438 42.9123 25.8398C42.9123 28.7755 42.9712 29.9735 43.1234 30.1251C43.424 30.4244 52.255 30.4244 52.5555 30.1251C52.7077 29.9735 52.7667 28.775 52.7667 25.8372C52.7667 21.9852 52.7479 21.7496 52.4264 21.5782C51.9729 21.3365 43.6381 21.3437 43.2202 21.5861ZM54.8177 21.7173C54.5653 21.9951 54.5264 22.5514 54.5264 25.8903C54.5264 28.6956 54.5863 29.824 54.7464 30.042C54.9458 30.3135 55.4015 30.3372 59.6296 30.2946L64.2929 30.2478L64.34 26.0633C64.3733 23.1235 64.3275 21.8069 64.1866 21.6378C64.0259 21.445 63.098 21.3968 59.5474 21.3968C55.4709 21.3968 55.0851 21.4229 54.8177 21.7173Z" fill="#C4BBF0"/>
</svg>
