<svg width="262" height="340" viewBox="0 0 262 340" fill="none" xmlns="http://www.w3.org/2000/svg">
<path d="M6.48112 336.37V271.559L130.27 169.157C138.48 162.352 145.501 155.979 151.334 150.038C157.275 143.989 161.812 137.778 164.944 131.405C168.185 125.031 169.805 117.956 169.805 110.179C169.805 101.645 167.969 94.3542 164.296 88.3051C160.732 82.2561 155.763 77.6113 149.39 74.3708C143.017 71.0222 135.671 69.3479 127.354 69.3479C119.036 69.3479 111.691 71.0222 105.318 74.3708C99.053 77.7193 94.1922 82.6342 90.7356 89.1153C87.279 95.5964 85.5507 103.482 85.5507 112.771H0C0 89.4393 5.23893 69.3479 15.7167 52.497C26.1945 35.6461 40.993 22.6839 60.1123 13.6103C79.2316 4.53678 101.645 0 127.354 0C153.926 0 176.934 4.26674 196.378 12.8002C215.929 21.2257 230.998 33.1077 241.583 48.4463C252.277 63.7849 257.624 81.77 257.624 102.402C257.624 115.148 254.978 127.84 249.685 140.478C244.392 153.008 234.886 166.889 221.168 182.119C207.45 197.35 187.952 215.497 162.676 236.561L131.567 262.485V264.429H261.189V336.37H6.48112Z" fill="#6254A5" fill-opacity="0.04"/>
</svg>
