<svg width="293" height="350" viewBox="0 0 293 350" fill="none" xmlns="http://www.w3.org/2000/svg">
<path d="M146.475 345.443C116.337 345.335 90.3049 338.368 68.3772 324.542C46.4494 310.715 29.5445 290.786 17.6625 264.753C5.78044 238.721 -0.106559 207.504 0.00145971 171.101C0.109478 134.591 6.0505 103.59 17.8245 78.0974C29.7066 52.605 46.5574 33.2157 68.3772 19.9294C90.3049 6.64315 116.337 0 146.475 0C176.612 0 202.644 6.69715 224.572 20.0915C246.5 33.3777 263.405 52.767 275.287 78.2594C287.169 103.752 293.056 134.699 292.948 171.101C292.948 207.72 287.007 239.045 275.125 265.077C263.243 291.11 246.338 311.039 224.41 324.866C202.59 338.584 176.612 345.443 146.475 345.443ZM146.475 272.207C162.029 272.207 174.775 264.105 184.713 247.902C194.759 231.592 199.728 205.991 199.62 171.101C199.62 148.309 197.351 129.676 192.815 115.202C188.278 100.727 182.013 90.0334 174.019 83.1203C166.026 76.0991 156.844 72.5884 146.475 72.5884C130.92 72.5884 118.228 80.4738 108.398 96.2445C98.5684 112.015 93.5455 136.967 93.3295 171.101C93.2214 194.325 95.4358 213.445 99.9726 228.459C104.509 243.366 110.774 254.384 118.768 261.513C126.869 268.642 136.105 272.207 146.475 272.207Z" fill="#6254A5" fill-opacity="0.04"/>
</svg>
