<svg width="277" height="345" viewBox="0 0 277 345" fill="none" xmlns="http://www.w3.org/2000/svg">
<path d="M143.883 340.906C124.548 340.906 106.185 337.882 88.7935 331.833C71.5106 325.676 56.1719 316.008 42.7776 302.83C29.3833 289.652 18.8515 272.477 11.1822 251.305C3.62092 230.133 -0.105736 204.479 0.00228207 174.342C0.1103 147.445 3.56693 123.249 10.3721 101.753C17.2853 80.2578 27.0609 61.9486 39.6991 46.826C52.4453 31.7034 67.6759 20.1455 85.3909 12.1521C103.106 4.0507 122.819 0 144.531 0C168.943 0 190.439 4.6988 209.018 14.0964C227.597 23.494 242.396 36.0782 253.414 51.8489C264.54 67.5116 271.021 84.7945 272.857 103.698H184.066C182.013 94.3002 177.261 87.441 169.807 83.1203C162.462 78.6915 154.037 76.4771 144.531 76.4771C125.628 76.4771 111.747 84.6865 102.89 101.105C94.1405 117.524 89.6577 139.128 89.4416 165.916H91.3859C95.5987 155.763 101.972 147.067 110.505 139.83C119.039 132.593 128.976 127.03 140.318 123.141C151.66 119.252 163.65 117.308 176.288 117.308C196.38 117.308 213.933 121.845 228.947 130.918C244.07 139.992 255.844 152.414 264.27 168.185C272.695 183.956 276.854 201.995 276.746 222.302C276.854 246.066 271.237 266.86 259.895 284.683C248.661 302.506 233.052 316.332 213.069 326.162C193.085 335.992 170.023 340.906 143.883 340.906ZM143.235 272.855C152.2 272.855 160.14 270.802 167.053 266.698C174.074 262.593 179.529 256.976 183.418 249.847C187.414 242.718 189.359 234.616 189.251 225.543C189.359 216.361 187.414 208.26 183.418 201.238C179.529 194.109 174.074 188.492 167.053 184.388C160.14 180.283 152.2 178.231 143.235 178.231C136.646 178.231 130.543 179.419 124.926 181.795C119.417 184.064 114.61 187.358 110.505 191.679C106.401 195.892 103.16 200.914 100.784 206.747C98.5152 212.472 97.327 218.738 97.219 225.543C97.327 234.616 99.3793 242.718 103.376 249.847C107.373 256.976 112.828 262.593 119.741 266.698C126.654 270.802 134.485 272.855 143.235 272.855Z" fill="#6254A5" fill-opacity="0.04"/>
</svg>
