<svg width="16" height="16" viewBox="0 0 16 16" fill="none" xmlns="http://www.w3.org/2000/svg">
<g clip-path="url(#clip0_127_104)">
<rect width="16" height="16" fill="white"/>
<rect width="16" height="16" rx="2" fill="white"/>
<path d="M9.76202 3C10.5808 3 11.3091 3.19963 11.9466 3.59961C12.584 3.99958 13.0858 4.56829 13.4515 5.30566C13.8171 6.04325 14.0003 6.91902 14.0003 7.93164C14.0003 8.94416 13.8171 9.81911 13.4515 10.5566C13.0858 11.2942 12.5842 11.8636 11.9466 12.2637C11.3091 12.6636 10.5807 12.8633 9.76202 12.8633C8.94329 12.8633 8.21496 12.6636 7.57745 12.2637C7.55989 12.2526 7.54243 12.2415 7.52507 12.2302C7.20389 12.0212 6.73781 12.1239 6.60582 12.4837C6.53012 12.69 6.33369 12.8271 6.11391 12.8271H5.87961C5.51917 12.8271 5.19702 12.6023 5.07278 12.2639L2.0354 3.99232C1.89892 3.62064 2.17402 3.22656 2.56997 3.22656C2.81145 3.22656 3.02668 3.37887 3.10701 3.60661L5.80487 11.2557C5.81606 11.2874 5.84604 11.3086 5.87968 11.3086C5.91334 11.3086 5.94333 11.2874 5.9545 11.2556L6.0953 10.8557C6.12997 10.7573 6.11893 10.6502 6.07257 10.5566C5.70696 9.81912 5.52376 8.94413 5.52374 7.93164C5.52374 6.91902 5.7069 6.04325 6.07257 5.30566C6.43822 4.56825 6.93998 3.99959 7.57745 3.59961C8.215 3.19958 8.94322 3.00002 9.76202 3ZM9.76202 4.08691C9.71724 4.08692 9.67765 4.11652 9.66221 4.15856L7.74524 9.37857C7.4861 10.0842 7.545 10.9357 8.18194 11.335C8.65385 11.6287 9.18074 11.7754 9.76202 11.7754C10.3433 11.7754 10.8684 11.6287 11.3372 11.335C11.8091 11.0412 12.1823 10.6081 12.4573 10.0361C12.7355 9.46424 12.8753 8.76289 12.8753 7.93164C12.8753 7.10029 12.7355 6.39812 12.4573 5.82617C12.1823 5.25449 11.809 4.82203 11.3372 4.52832C10.8684 4.23453 10.3433 4.08691 9.76202 4.08691ZM8.2937 4.62097C8.31858 4.55044 8.24544 4.4888 8.18194 4.52832C7.7134 4.82205 7.33989 5.25453 7.06183 5.82617C6.78679 6.39812 6.64972 7.10029 6.64972 7.93164C6.64972 8.23033 7.00646 8.27034 7.10582 7.98866L8.2937 4.62097Z" fill="black"/>
</g>
<defs>
<clipPath id="clip0_127_104">
<rect width="16" height="16" fill="white"/>
</clipPath>
</defs>
</svg>
