<svg width="32" height="32" viewBox="0 0 32 32" fill="none" xmlns="http://www.w3.org/2000/svg">
<g clip-path="url(#clip0_127_110)">
<rect width="32" height="32" fill="white"/>
<rect width="32" height="32" rx="4" fill="white"/>
<path d="M18.9522 6C20.5294 6 21.932 6.38571 23.1602 7.15625C24.3884 7.92688 25.3552 9.02252 26.0596 10.4434C26.764 11.8642 27.1162 13.5504 27.1162 15.501C27.1162 17.4513 26.7639 19.1369 26.0596 20.5576C25.3552 21.9785 24.3884 23.0741 23.1602 23.8447C21.932 24.6153 20.5295 25.001 18.9522 25.001C17.3748 25.001 15.9723 24.6153 14.7442 23.8447C14.7106 23.8236 14.6772 23.8023 14.644 23.7807C14.0252 23.3786 13.1269 23.5774 12.8727 24.2701C12.7268 24.6675 12.3485 24.9316 11.9253 24.9316H11.4735C10.779 24.9316 10.1583 24.4983 9.9189 23.8463L4.06821 7.91217C3.80522 7.19592 4.33535 6.43652 5.09836 6.43652C5.56375 6.43652 5.97853 6.73007 6.1333 7.16897L11.3292 21.9036C11.3508 21.9649 11.4087 22.0059 11.4736 22.0059C11.5386 22.0059 11.5965 21.9649 11.6181 21.9036L11.8858 21.1438C11.9536 20.9514 11.9353 20.7403 11.8447 20.5576C11.1405 19.1369 10.7881 17.4514 10.7881 15.501C10.7881 13.5503 11.1404 11.8642 11.8447 10.4434C12.5491 9.02252 13.516 7.92688 14.7442 7.15625C15.9723 6.38572 17.3749 6 18.9522 6ZM18.9522 8.0957C18.8661 8.0957 18.7901 8.15274 18.7604 8.23351L15.0673 18.2915C14.5685 19.6499 14.683 21.2882 15.9092 22.0566C16.8183 22.6225 17.8324 22.9062 18.9522 22.9062C20.072 22.9062 21.0833 22.6226 21.9863 22.0566C22.8953 21.4908 23.6148 20.6573 24.1445 19.5557C24.6803 18.454 24.9482 17.1023 24.9483 15.501C24.9483 13.8996 24.6803 12.548 24.1445 11.4463C23.6147 10.3445 22.8954 9.51027 21.9863 8.94434C21.0833 8.37844 20.0719 8.09571 18.9522 8.0957ZM16.1251 9.12391C16.1731 8.98799 16.0316 8.86817 15.9092 8.94434C15.0061 9.51027 14.2858 10.3445 13.75 11.4463C13.2204 12.5479 12.9561 13.8998 12.9561 15.501C12.9561 16.0769 13.6455 16.1538 13.837 15.6107L16.1251 9.12391Z" fill="black"/>
</g>
<defs>
<clipPath id="clip0_127_110">
<rect width="32" height="32" fill="white"/>
</clipPath>
</defs>
</svg>
