<svg width="47" height="38" viewBox="0 0 47 38" fill="none" xmlns="http://www.w3.org/2000/svg">
<path d="M29.9035 0C33.058 7.6596e-05 35.8634 0.770392 38.3195 2.31152C40.7758 3.85273 42.7086 6.04416 44.1174 8.88574C45.5261 11.7273 46.2307 15.0989 46.2307 19C46.2307 22.9011 45.5261 26.2727 44.1174 29.1143C42.7086 31.9558 40.7758 34.1473 38.3195 35.6885C35.8634 37.2296 33.058 37.9999 29.9035 38C26.7489 38 23.9428 37.2297 21.4865 35.6885C21.4195 35.6464 21.3529 35.6039 21.2867 35.5608C20.0494 34.7568 18.253 35.1543 17.7446 36.5395C17.4529 37.3341 16.6964 37.8623 15.8499 37.8623H14.9469C13.5581 37.8623 12.3168 36.9958 11.8381 35.6921L0.136402 3.82374C-0.389488 2.39153 0.67056 0.873047 2.19627 0.873047C3.12684 0.873047 3.95622 1.46001 4.2657 2.33761L14.6576 31.8063C14.7008 31.9288 14.8166 32.0107 14.9465 32.0107C15.0764 32.0107 15.1922 31.9288 15.2354 31.8063L15.7704 30.2883C15.9062 29.9031 15.8701 29.4802 15.6887 29.1143C14.2799 26.2727 13.5754 22.9011 13.5754 19C13.5754 15.0989 14.28 11.7273 15.6887 8.88574C17.0974 6.04417 19.0303 3.85273 21.4865 2.31152C23.9428 0.770315 26.7489 0 29.9035 0ZM29.9035 4.18945C29.7327 4.18945 29.5816 4.29887 29.5227 4.45924L22.1317 24.5886C21.1348 27.3037 21.3658 30.5764 23.8166 32.1123C25.6347 33.2441 27.664 33.8096 29.9035 33.8096C32.1429 33.8095 34.1659 33.244 35.9719 32.1123C37.7899 30.9805 39.2287 29.3127 40.2883 27.1094C41.3599 24.906 41.8957 22.2028 41.8957 19C41.8957 15.7973 41.3599 13.094 40.2883 10.8906C39.2288 8.68729 37.7899 7.01952 35.9719 5.8877C34.1659 4.75595 32.1429 4.18953 29.9035 4.18945ZM24.2485 6.24686C24.3444 5.97501 24.0613 5.73535 23.8166 5.8877C22.0105 7.01952 20.5718 8.68718 19.5002 10.8906C18.4406 13.0941 17.9104 15.7972 17.9104 19C17.9104 20.154 19.2895 20.3082 19.6733 19.2199L24.2485 6.24686Z" fill="black"/>
</svg>
